<svg width="256" height="25" viewBox="0 0 256 25" fill="none" xmlns="http://www.w3.org/2000/svg">
<g clip-path="url(#clip0)">
<path d="M28.3213 18.4865C28.3213 20.5718 27.2867 22.1264 25.2175 23.151C23.6476 23.9255 21.6974 24.3129 19.3669 24.3129H9.89492C7.40966 24.3129 5.32242 23.9614 3.63382 23.2578C1.31518 22.2925 0.155708 20.7248 0.155708 18.5548V7.07425C0.155708 5.02356 1.351 3.49764 3.74158 2.49618C5.5015 1.75726 7.56507 1.38733 9.93198 1.38733H13.696C14.6711 1.38733 15.1588 1.87589 15.1588 2.853V3.31783C15.1588 4.30712 14.6708 4.8016 13.6947 4.8016H10.1416C6.26109 4.8016 4.32116 5.55894 4.32116 7.07269V18.5358C4.32116 20.0979 6.19569 20.8787 9.94506 20.8787H19.3713C20.2399 20.8787 21.1804 20.712 22.1923 20.3783C23.5012 19.9496 24.1562 19.3715 24.1562 18.6447V12.7131C24.1562 11.7363 24.6486 11.248 25.6336 11.248H26.8619C27.8348 11.248 28.3216 11.7366 28.3216 12.7134V18.4865H28.3213Z" fill="black" fill-opacity="0.5"/>
<path d="M63.9281 22.191C63.9633 22.3699 63.981 22.5547 63.981 22.7455C63.981 23.3654 63.7727 23.8662 63.356 24.248C62.9393 24.6294 62.4157 24.8202 61.7854 24.8202C61.1308 24.8202 60.5418 24.439 60.018 23.6776L56.3346 18.2842H38.7401L35.0459 23.6714C34.9269 23.8977 34.8141 24.0579 34.707 24.1531C34.4451 24.4028 34.1296 24.5277 33.7612 24.5277C32.9639 24.5277 32.3753 24.2417 31.9944 23.6698C31.8278 23.4198 31.7446 23.1816 31.7446 22.9552C31.7446 22.8004 31.7683 22.6755 31.816 22.58L44.9993 2.3866C45.5699 1.51688 46.4204 1.10575 47.55 1.15351C48.8938 1.20127 49.697 1.61241 49.9583 2.3866L63.9281 22.191ZM53.8759 14.8306L47.5456 5.47994L41.1818 14.8306H53.8759Z" fill="black" fill-opacity="0.5"/>
<path d="M93.1018 22.8285C93.1018 23.8181 92.6082 24.3129 91.6212 24.3129H78.5269C75.9102 24.3129 74.1618 24.2233 73.282 24.0447C69.1907 23.2103 67.1452 21.291 67.1452 18.2866V2.85386C67.1452 1.87644 67.6316 1.38757 68.6049 1.38757H69.8332C70.8179 1.38757 71.3106 1.87644 71.3106 2.85386V18.2863C71.3106 19.5144 72.2801 20.307 74.2198 20.6645C74.9927 20.8077 76.4148 20.8792 78.4852 20.8792H91.6206C92.6079 20.8792 93.1018 21.374 93.1018 22.3636V22.8285Z" fill="black" fill-opacity="0.5"/>
<path d="M127.119 22.191C127.154 22.3699 127.172 22.5547 127.172 22.7455C127.172 23.3654 126.963 23.8662 126.547 24.248C126.13 24.6294 125.606 24.8202 124.976 24.8202C124.321 24.8202 123.732 24.439 123.209 23.6776L119.525 18.2842H101.931L98.2367 23.6714C98.1178 23.8977 98.005 24.0579 97.8979 24.1531C97.636 24.4028 97.3205 24.5277 96.952 24.5277C96.1548 24.5277 95.5662 24.2417 95.1853 23.6698C95.0187 23.4198 94.9355 23.1816 94.9355 22.9552C94.9355 22.8004 94.9592 22.6755 95.0068 22.58L108.19 2.3866C108.761 1.51688 109.611 1.10575 110.741 1.15351C112.085 1.20127 112.888 1.61241 113.149 2.3866L127.119 22.191ZM117.067 14.8306L110.736 5.47994L104.373 14.8306H117.067Z" fill="black" fill-opacity="0.5"/>
<path d="M154.814 21.5264C155.479 21.8838 155.811 22.3602 155.811 22.9552C155.811 23.8602 155.252 24.3129 154.134 24.3129H152.653C152.415 24.3129 152.183 24.2532 151.957 24.1343L134.424 14.8592V22.8297C134.424 23.8187 133.928 24.3129 132.936 24.3129H131.806C130.826 24.3129 130.336 23.8181 130.336 22.8285V2.85386C130.336 1.87644 130.826 1.38757 131.806 1.38757H132.936C133.928 1.38757 134.424 1.87675 134.424 2.85511V10.5684L151.316 1.55646C151.637 1.44408 151.868 1.38757 152.011 1.38757H153.581C154.699 1.38757 155.258 1.84148 155.258 2.74897C155.258 3.34617 154.924 3.81786 154.257 4.16407L138.095 12.6543L154.814 21.5264Z" fill="black" fill-opacity="0.5"/>
<path d="M183.692 3.31807C183.692 4.30737 183.199 4.80185 182.212 4.80185H172.978V22.8285C172.978 23.8181 172.489 24.3129 171.512 24.3129H170.278C169.3 24.3129 168.812 23.8181 168.812 22.8285V4.80185H159.626C158.639 4.80185 158.145 4.30737 158.145 3.31807V2.85324C158.145 1.87613 158.639 1.38757 159.626 1.38757H182.211C183.198 1.38757 183.692 1.87613 183.692 2.85324V3.31807Z" fill="black" fill-opacity="0.5"/>
<path d="M190.274 22.8285C190.274 23.8181 189.782 24.3129 188.797 24.3129H187.569C186.595 24.3129 186.109 23.8181 186.109 22.8285V2.85386C186.109 1.87644 186.595 1.38757 187.569 1.38757H188.797C189.782 1.38757 190.274 1.87644 190.274 2.85386V22.8285Z" fill="black" fill-opacity="0.5"/>
<path d="M219.646 21.5264C220.31 21.8838 220.643 22.3602 220.643 22.9552C220.643 23.8602 220.084 24.3129 218.966 24.3129H217.485C217.247 24.3129 217.015 24.2532 216.789 24.1343L199.256 14.8592V22.8297C199.256 23.8187 198.759 24.3129 197.767 24.3129H196.638C195.658 24.3129 195.168 23.8181 195.168 22.8285V2.85386C195.168 1.87644 195.658 1.38757 196.638 1.38757H197.767C198.76 1.38757 199.256 1.87675 199.256 2.85511V10.5684L216.147 1.55646C216.469 1.44408 216.7 1.38757 216.843 1.38757H218.413C219.531 1.38757 220.09 1.84148 220.09 2.74897C220.09 3.34617 219.756 3.81786 219.089 4.16407L202.927 12.6543L219.646 21.5264Z" fill="black" fill-opacity="0.5"/>
<path d="M255.783 22.191C255.818 22.3699 255.836 22.5547 255.836 22.7455C255.836 23.3654 255.628 23.8662 255.211 24.248C254.794 24.6294 254.271 24.8202 253.641 24.8202C252.986 24.8202 252.397 24.439 251.873 23.6776L248.19 18.2842H230.595L226.901 23.6714C226.782 23.8977 226.67 24.0579 226.562 24.1531C226.301 24.4028 225.985 24.5277 225.617 24.5277C224.819 24.5277 224.231 24.2417 223.85 23.6698C223.683 23.4198 223.6 23.1816 223.6 22.9552C223.6 22.8004 223.624 22.6755 223.671 22.58L236.855 2.3866C237.425 1.51688 238.276 1.10575 239.405 1.15351C240.749 1.20127 241.552 1.61241 241.814 2.3866L255.783 22.191ZM245.731 14.8306L239.401 5.47994L233.037 14.8306H245.731Z" fill="black" fill-opacity="0.5"/>
</g>
<defs>
<clipPath id="clip0">
<rect width="256" height="24.0376" fill="white" transform="translate(0 0.962402)"/>
</clipPath>
</defs>
</svg>
